<svg xmlns="http://www.w3.org/2000/svg" width="0" height="0">
  <defs>
    <symbol id="car-icon" viewBox="0 0 24 24">
      <path d="M5,11L6.5,6.5H17.5L19,11M17.5,16A1.5,1.5 0 0,1 16,14.5A1.5,1.5 0 0,1 17.5,13A1.5,1.5 0 0,1 19,14.5A1.5,1.5 0 0,1 17.5,16M6.5,16A1.5,1.5 0 0,1 5,14.5A1.5,1.5 0 0,1 6.5,13A1.5,1.5 0 0,1 8,14.5A1.5,1.5 0 0,1 6.5,16M18.92,6C18.72,5.42 18.16,5 17.5,5H6.5C5.84,5 5.28,5.42 5.08,6L3,12V20A1,1 0 0,0 4,21H5A1,1 0 0,0 6,20V19H18V20A1,1 0 0,0 19,21H20A1,1 0 0,0 21,20V12L18.92,6Z" fill="url(#car-gradient)"/>
    </symbol>
    <symbol id="battery-icon" viewBox="0 0 24 24">
      <path d="M16,20H8V6H16M16.67,4H15V2H9V4H7.33A1.33,1.33 0 0,0 6,5.33V20.67C6,21.4 6.6,22 7.33,22H16.67A1.33,1.33 0 0,0 18,20.67V5.33C18,4.6 17.4,4 16.67,4Z" fill="url(#battery-gradient)"/>
    </symbol>
    <symbol id="speedometer-icon" viewBox="0 0 24 24">
      <path d="M12,16A3,3 0 0,1 9,13C9,11.88 9.61,10.9 10.5,10.39L20.21,4.77L14.68,14.35C14.18,15.33 13.17,16 12,16M12,3C13.81,3 15.5,3.5 17,4.45V4.5L7.34,10.12C6.5,10.68 6,11.76 6,13C6,14.38 6.79,15.63 8,16.21V16.39C6.2,15.69 4.8,14.36 4,12.68C4.92,14.25 6.34,15.5 8,16.21C8.68,16.5 9.41,16.69 10.17,16.78C10.06,17.5 10,18.24 10,19V19.45L12,21L14,19.45V19C14,18.24 13.94,17.5 13.83,16.78C14.59,16.69 15.32,16.5 16,16.21C17.66,15.5 19.08,14.25 20,12.68C19.2,14.36 17.8,15.69 16,16.39V16.21C17.21,15.63 18,14.38 18,13C18,11.76 17.5,10.68 16.66,10.12L7,4.5V4.45C8.5,3.5 10.19,3 12,3Z" fill="url(#speed-gradient)"/>
    </symbol>
    <symbol id="temperature-icon" viewBox="0 0 24 24">
      <path d="M15,13V5A3,3 0 0,0 12,2A3,3 0 0,0 9,5V13A5,5 0 1,0 15,13M12,4A1,1 0 0,1 13,5V8H11V5A1,1 0 0,1 12,4Z" fill="url(#temp-gradient)"/>
    </symbol>
    <symbol id="sport-icon" viewBox="0 0 24 24">
      <path d="M12,3.77L11.25,4.61C11.25,4.61 9.97,6.06 8.68,7.94C7.39,9.82 6,12.07 6,14.23A6,6 0 0,0 12,20.23A6,6 0 0,0 18,14.23C18,12.07 16.61,9.82 15.32,7.94C14.03,6.06 12.75,4.61 12.75,4.61L12,3.77M12,6.9C12.44,7.42 12.84,7.85 13.68,9.07C14.89,10.83 16,13.07 16,14.23C16,16.45 14.22,18.23 12,18.23C9.78,18.23 8,16.45 8,14.23C8,13.07 9.11,10.83 10.32,9.07C11.16,7.85 11.56,7.42 12,6.9Z" fill="url(#sport-gradient)"/>
    </symbol>
    <symbol id="eco-icon" viewBox="0 0 24 24">
      <path d="M17,8C8,10 5.9,16.17 3.82,21.34L5.71,22L6.66,19.7C7.14,19.87 7.64,20 8,20C19,20 22,3 22,3C21,5 14,5.25 9,6.25C4,7.25 2,11.5 2,13.5C2,15.5 3.75,17.25 3.75,17.25C7,8 17,8 17,8Z" fill="url(#eco-gradient)"/>
    </symbol>
  </defs>
</svg>