<svg xmlns="http://www.w3.org/2000/svg" viewBox="0 0 24 24" width="24" height="24">
  <defs>
    <linearGradient id="eco-gradient" x1="0%" y1="0%" x2="100%" y2="100%">
      <stop offset="0%" style="stop-color:#4CAF50"/>
      <stop offset="100%" style="stop-color:#8BC34A"/>
    </linearGradient>
    <filter id="glow">
      <feGaussianBlur stdDeviation="1" result="coloredBlur"/>
      <feMerge>
        <feMergeNode in="coloredBlur"/>
        <feMergeNode in="SourceGraphic"/>
      </feMerge>
    </filter>
  </defs>
  <path d="M12 2C6.48 2 2 6.48 2 12s4.48 10 10 10 10-4.48 10-10S17.52 2 12 2zm0 2c4.42 0 8 3.58 8 8s-3.58 8-8 8-8-3.58-8-8 3.58-8 8-8zm-2 12h4v-2h-4v2zm0-4h4v-2h-4v2zm0-4h4V6h-4v2z" fill="url(#eco-gradient)" filter="url(#glow)"/>
</svg>